HIERARCHY
ROOT Hips
{
	OFFSET 0.000000 103.266502 0.000000
	CHANNELS 6 Xposition Yposition Zposition Xrotation Yrotation Zrotation 
	JOINT Spine
	{
		OFFSET -0.002400 12.777504 0.315300
		CHANNELS 3 Xrotation Yrotation Zrotation
		JOINT Spine1
		{
			OFFSET -0.002067 5.816869 0.032633
			CHANNELS 3 Xrotation Yrotation Zrotation
			JOINT Spine1_split
			{
				OFFSET -0.002067 5.816869 0.032633
				CHANNELS 3 Xrotation Yrotation Zrotation
				JOINT Spine2
				{
					OFFSET -0.002067 5.816869 0.032633
					CHANNELS 3 Xrotation Yrotation Zrotation
					JOINT Neck
					{
						OFFSET -0.003700 21.199493 -0.826900
						CHANNELS 3 Xrotation Yrotation Zrotation
						JOINT Head
						{
							OFFSET 0.000000 20.442200 4.834800
							CHANNELS 3 Xrotation Yrotation Zrotation
							JOINT HeadTop_End
							{
								OFFSET 0.000000 34.668396 4.968400
								CHANNELS 3 Xrotation Yrotation Zrotation
								End Site
								{
									OFFSET 0.000000 0.000000 0.000000
								}
							}
						}
					}
					JOINT LeftShoulder
					{
						OFFSET 3.288150 8.794197 -1.372250
						CHANNELS 3 Xrotation Yrotation Zrotation
						JOINT LeftShoulder_split
						{
							OFFSET 3.288150 8.794197 -1.372250
							CHANNELS 3 Xrotation Yrotation Zrotation
							JOINT LeftArm
							{
								OFFSET 11.953299 -2.279007 -0.146200
								CHANNELS 3 Xrotation Yrotation Zrotation
								JOINT LeftForeArm
								{
									OFFSET 18.448900 0.000000 0.000000
									CHANNELS 3 Xrotation Yrotation Zrotation
									JOINT LeftHand
									{
										OFFSET 29.527798 0.000000 0.000000
										CHANNELS 3 Xrotation Yrotation Zrotation
										JOINT LeftHandThumb1
										{
											OFFSET 10.739754 -2.369614 9.225399
											CHANNELS 3 Xrotation Yrotation Zrotation
											JOINT LeftHandThumb2
											{
												OFFSET 4.926170 -2.844131 2.844125
												CHANNELS 3 Xrotation Yrotation Zrotation
												JOINT LeftHandThumb3
												{
													OFFSET 4.614891 -2.664413 2.664409
													CHANNELS 3 Xrotation Yrotation Zrotation
													JOINT LeftHandThumb4
													{
														OFFSET 4.432465 -2.559082 2.559083
														CHANNELS 3 Xrotation Yrotation Zrotation
														End Site
														{
															OFFSET 0.000000 0.000000 0.000000
														}
													}
												}
											}
										}
										JOINT LeftHandIndex1
										{
											OFFSET 26.467674 0.187653 6.405298
											CHANNELS 3 Xrotation Yrotation Zrotation
											JOINT LeftHandIndex2
											{
												OFFSET 8.792900 0.000000 0.000000
												CHANNELS 3 Xrotation Yrotation Zrotation
												JOINT LeftHandIndex3
												{
													OFFSET 10.075203 0.000000 0.000000
													CHANNELS 3 Xrotation Yrotation Zrotation
													End Site
													{
														OFFSET 0.000000 0.000000 0.000000
													}
												}
											}
										}
										JOINT LeftHandMiddle1
										{
											OFFSET 25.764404 0.000000 0.000000
											CHANNELS 3 Xrotation Yrotation Zrotation
											JOINT LeftHandMiddle2
											{
												OFFSET 9.393974 0.000000 0.000000
												CHANNELS 3 Xrotation Yrotation Zrotation
												JOINT LeftHandMiddle3
												{
													OFFSET 10.771950 0.000000 0.000000
													CHANNELS 3 Xrotation Yrotation Zrotation
													End Site
													{
														OFFSET 0.000000 0.000000 0.000000
													}
												}
											}
										}
										JOINT LeftHandRing1
										{
											OFFSET 24.660927 0.144547 -6.225808
											CHANNELS 3 Xrotation Yrotation Zrotation
											JOINT LeftHandRing2
											{
												OFFSET 9.393799 0.000000 0.000000
												CHANNELS 3 Xrotation Yrotation Zrotation
												JOINT LeftHandRing3
												{
													OFFSET 9.928497 0.000000 0.000000
													CHANNELS 3 Xrotation Yrotation Zrotation
													End Site
													{
														OFFSET 0.000000 0.000000 0.000000
													}
												}
											}
										}
										JOINT LeftHandPinky1
										{
											OFFSET 23.655350 0.125290 -12.815412
											CHANNELS 3 Xrotation Yrotation Zrotation
											JOINT LeftHandPinky2
											{
												OFFSET 8.425102 0.000000 0.000000
												CHANNELS 3 Xrotation Yrotation Zrotation
												JOINT LeftHandPinky3
												{
													OFFSET 8.147003 0.000000 0.000000
													CHANNELS 3 Xrotation Yrotation Zrotation
													End Site
													{
														OFFSET 0.000000 0.000000 0.000000
													}
												}
											}
										}
									}
								}
							}
						}
					}
					JOINT RightShoulder
					{
						OFFSET -3.249400 8.794197 -1.372250
						CHANNELS 3 Xrotation Yrotation Zrotation
						JOINT RightShoulder_split
						{
							OFFSET -3.249400 8.794197 -1.372250
							CHANNELS 3 Xrotation Yrotation Zrotation
							JOINT RightArm
							{
								OFFSET -11.953299 -2.279007 -0.146200
								CHANNELS 3 Xrotation Yrotation Zrotation
								JOINT RightForeArm
								{
									OFFSET -18.448900 0.000000 0.000000
									CHANNELS 3 Xrotation Yrotation Zrotation
									JOINT RightHand
									{
										OFFSET -29.527802 0.000000 0.000000
										CHANNELS 3 Xrotation Yrotation Zrotation
										JOINT RightHandThumb1
										{
											OFFSET -10.739754 -2.369614 9.225399
											CHANNELS 3 Xrotation Yrotation Zrotation
											JOINT RightHandThumb2
											{
												OFFSET -4.926170 -2.844131 2.844125
												CHANNELS 3 Xrotation Yrotation Zrotation
												JOINT RightHandThumb3
												{
													OFFSET -4.614891 -2.664413 2.664409
													CHANNELS 3 Xrotation Yrotation Zrotation
													JOINT RightHandThumb4
													{
														OFFSET -4.432465 -2.559082 2.559083
														CHANNELS 3 Xrotation Yrotation Zrotation
														End Site
														{
															OFFSET 0.000000 0.000000 0.000000
														}
													}
												}
											}
										}
										JOINT RightHandIndex1
										{
											OFFSET -26.467674 0.187653 6.405298
											CHANNELS 3 Xrotation Yrotation Zrotation
											JOINT RightHandIndex2
											{
												OFFSET -8.792900 0.000000 0.000000
												CHANNELS 3 Xrotation Yrotation Zrotation
												JOINT RightHandIndex3
												{
													OFFSET -10.075203 0.000000 0.000000
													CHANNELS 3 Xrotation Yrotation Zrotation
													End Site
													{
														OFFSET 0.000000 0.000000 0.000000
													}
												}
											}
										}
										JOINT RightHandMiddle1
										{
											OFFSET -25.764404 0.000000 0.000000
											CHANNELS 3 Xrotation Yrotation Zrotation
											JOINT RightHandMiddle2
											{
												OFFSET -9.393974 0.000000 0.000000
												CHANNELS 3 Xrotation Yrotation Zrotation
												JOINT RightHandMiddle3
												{
													OFFSET -10.771950 0.000000 0.000000
													CHANNELS 3 Xrotation Yrotation Zrotation
													End Site
													{
														OFFSET 0.000000 0.000000 0.000000
													}
												}
											}
										}
										JOINT RightHandRing1
										{
											OFFSET -24.660927 0.144547 -6.225808
											CHANNELS 3 Xrotation Yrotation Zrotation
											JOINT RightHandRing2
											{
												OFFSET -9.393799 0.000000 0.000000
												CHANNELS 3 Xrotation Yrotation Zrotation
												JOINT RightHandRing3
												{
													OFFSET -9.928497 0.000000 0.000000
													CHANNELS 3 Xrotation Yrotation Zrotation
													End Site
													{
														OFFSET 0.000000 0.000000 0.000000
													}
												}
											}
										}
										JOINT RightHandPinky1
										{
											OFFSET -23.655350 0.125290 -12.815412
											CHANNELS 3 Xrotation Yrotation Zrotation
											JOINT RightHandPinky2
											{
												OFFSET -8.425102 0.000000 0.000000
												CHANNELS 3 Xrotation Yrotation Zrotation
												JOINT RightHandPinky3
												{
													OFFSET -8.147003 0.000000 0.000000
													CHANNELS 3 Xrotation Yrotation Zrotation
													End Site
													{
														OFFSET 0.000000 0.000000 0.000000
													}
												}
											}
										}
									}
								}
							}
						}
					}
				}
			}
		}
	}
	JOINT LeftUpLeg
	{
		OFFSET 11.394100 -6.187798 -0.413800
		CHANNELS 3 Xrotation Yrotation Zrotation
		JOINT LeftLeg
		{
			OFFSET 0.430247 -32.302673 3.732800
			CHANNELS 3 Xrotation Yrotation Zrotation
			JOINT LeftFoot
			{
				OFFSET -0.430247 -48.264931 -6.423300
				CHANNELS 3 Xrotation Yrotation Zrotation
				JOINT LeftToeBase
				{
					OFFSET 4.230900 -16.068199 23.438400
					CHANNELS 3 Xrotation Yrotation Zrotation
					JOINT LeftToe_End
					{
						OFFSET 4.510700 0.695400 19.974600
						CHANNELS 3 Xrotation Yrotation Zrotation
						End Site
						{
							OFFSET 0.000000 0.000000 0.000000
						}
					}
				}
			}
		}
	}
	JOINT RightUpLeg
	{
		OFFSET -11.333700 -6.187798 -0.413800
		CHANNELS 3 Xrotation Yrotation Zrotation
		JOINT RightLeg
		{
			OFFSET -0.430392 -32.302628 3.733000
			CHANNELS 3 Xrotation Yrotation Zrotation
			JOINT RightFoot
			{
				OFFSET 0.430392 -48.264973 -6.423500
				CHANNELS 3 Xrotation Yrotation Zrotation
				JOINT RightToeBase
				{
					OFFSET -4.230900 -16.068199 23.438400
					CHANNELS 3 Xrotation Yrotation Zrotation
					JOINT RightToe_End
					{
						OFFSET -4.510700 0.695400 19.974600
						CHANNELS 3 Xrotation Yrotation Zrotation
						End Site
						{
							OFFSET 0.000000 0.000000 0.000000
						}
					}
				}
			}
		}
	}
}
MOTION
Frames: 6
Frame Time: 0.016667
-7.475408 97.508888 474.753967 178.405579 18.626681 -175.083416 -8.185456 8.989723 -3.445985 2.885765 0.867782 -2.840126 0.000000 0.000000 0.000000 2.918912 0.925579 -2.789145 -2.267353 -1.126766 -1.980807 5.163782 9.476487 4.286312 0.000000 -0.000000 0.000000 2.179067 -9.179411 -8.047979 0.000000 0.000000 0.000000 14.406945 29.963958 -77.628617 0.000010 -34.684445 0.000014 14.422656 3.046592 -0.816646 -6.684707 7.621258 19.674611 12.443669 25.448708 -7.963732 5.136237 7.868236 -3.074647 0.000001 -0.000003 0.000000 -0.599926 -1.191955 -15.838690 0.763108 3.155589 -27.183127 -0.000000 0.000001 0.000003 -0.513523 -1.737478 -12.002735 0.474078 2.515165 -21.345297 -0.000001 0.000000 -0.000001 0.001059 0.779665 -12.836417 0.906744 3.420413 -29.687127 0.000000 -0.000000 0.000003 2.100226 10.721551 -11.319401 0.694479 -1.057924 -26.220968 0.000001 -0.000000 -0.000000 1.176339 8.510091 2.447320 0.000000 0.000000 0.000000 54.046635 33.855882 65.975714 0.000008 63.444043 0.000009 52.855532 43.637211 -78.072580 2.028302 4.773710 9.571610 4.642467 -8.639180 -0.222139 -7.858480 19.054609 -1.516469 -0.000003 0.000001 0.000002 8.333988 12.771176 -38.552641 0.273800 -1.935656 16.100455 0.000000 0.000000 -0.000001 3.496435 8.099786 -28.749352 0.565356 -2.751010 23.221801 0.000001 -0.000000 -0.000001 1.427757 5.041214 -20.610596 0.144910 -1.414972 11.694200 0.000000 -0.000000 -0.000000 -3.351260 -9.486517 -18.455419 0.124448 -1.312292 10.834517 0.000001 0.000000 0.000000 -10.271106 4.756657 -14.419496 26.356213 2.501681 2.178711 -17.390763 -0.491907 1.202433 0.104471 -0.001095 0.280586 0.000000 0.000000 0.000000 -14.128502 -8.210205 -17.061519 55.795402 -13.921299 -2.071011 22.807159 -5.460679 28.391761 -44.048877 -8.238715 13.065097 -0.000001 0.000000 -0.000000 
-7.613940 97.033440 474.240875 178.521214 18.116454 -174.694055 -7.969526 8.658722 -3.237850 2.875274 0.818129 -2.931604 0.000000 0.000000 0.000000 2.908801 0.873101 -2.883819 -2.130121 -0.781071 -2.167742 5.293202 11.076067 3.964217 0.000000 0.000000 0.000000 2.350524 -9.842292 -8.206664 0.000000 0.000000 0.000000 12.252315 28.921295 -76.587184 0.000003 -33.323940 0.000008 15.503476 3.149338 -1.500101 -6.700404 7.648505 20.154625 12.316239 25.187818 -7.880620 5.028906 7.619581 -3.015365 -0.000001 -0.000001 -0.000000 -0.634962 -1.349612 -15.696726 0.763055 3.155489 -27.182244 0.000000 0.000000 0.000003 -0.502566 -1.793118 -11.613231 0.485397 2.543913 -21.601819 0.000001 0.000001 0.000001 -0.009623 0.728892 -12.781709 0.923277 3.449206 -29.963121 0.000000 0.000000 0.000002 1.964092 10.449548 -10.849559 0.730370 -0.986119 -26.885458 -0.000000 -0.000001 0.000002 1.147073 8.186082 2.395672 0.000000 0.000000 0.000000 53.514153 32.226103 67.039960 0.000050 64.113592 -0.000055 51.483869 43.898418 -75.395794 1.630054 4.544518 9.876820 4.619468 -8.628190 -0.234498 -7.863826 19.056175 -1.516026 -0.000001 0.000001 0.000000 8.024305 12.463476 -38.292769 0.272150 -1.929970 16.051732 -0.000003 0.000000 0.000001 3.286621 7.766328 -28.519711 0.563633 -2.746992 23.185629 0.000004 -0.000000 0.000000 1.292499 4.713895 -20.382818 0.143449 -1.407888 11.634677 0.000001 0.000001 -0.000001 -3.406015 -9.828158 -18.246063 0.124782 -1.314087 10.849468 0.000001 0.000000 0.000000 -10.589404 5.115987 -14.835647 27.880737 1.849456 1.963083 -18.308916 -0.541426 1.161457 0.103378 -0.001080 0.277926 0.000000 0.000002 0.000000 -17.425197 -6.884514 -18.357045 58.853083 -13.341599 -2.276123 26.653343 -3.165805 27.003295 -47.085504 -11.012842 14.446475 0.000001 -0.000001 0.000000 
-7.712973 96.493256 473.798767 178.650278 17.767043 -174.250980 -7.534161 8.261466 -3.177954 2.875485 0.762741 -2.993522 0.000000 0.000000 0.000000 2.908380 0.813676 -2.949340 -2.055261 -0.454480 -2.308379 5.231539 12.641306 3.684729 -0.000000 -0.000000 0.000000 2.546453 -10.572196 -8.378385 0.000000 0.000000 0.000000 9.922148 27.756099 -75.391990 -0.000003 -32.041903 -0.000001 16.831394 3.251075 -2.443234 -6.700559 7.737802 20.690873 12.203152 24.954409 -7.806893 4.916784 7.358030 -2.953371 0.000001 0.000000 0.000000 -0.673814 -1.516358 -15.590023 0.762993 3.155367 -27.181165 -0.000001 0.000001 0.000001 -0.478438 -1.803005 -11.152367 0.496709 2.572277 -21.855243 -0.000001 0.000001 0.000000 -0.003894 0.744799 -12.628210 0.940807 3.479386 -30.253230 -0.000003 0.000001 0.000005 1.821259 10.186833 -10.297954 0.772722 -0.903959 -27.650730 -0.000001 -0.000000 -0.000001 1.128169 7.962233 2.448088 0.000000 0.000000 0.000000 52.967178 30.554954 67.976898 -0.000097 64.710838 0.000122 50.178586 44.005983 -72.730190 1.538522 4.517430 9.972495 4.594836 -8.615004 -0.248080 -7.869309 19.058024 -1.515690 0.000001 -0.000000 -0.000002 7.968355 12.398192 -38.277767 0.271528 -1.927802 16.033114 -0.000002 -0.000000 -0.000000 3.251004 7.703737 -28.510815 0.563236 -2.746086 23.177675 0.000001 -0.000000 0.000000 1.270429 4.657468 -20.365548 0.142506 -1.403329 11.596581 -0.000003 0.000000 -0.000000 -3.420576 -9.891935 -18.227567 0.124309 -1.311613 10.828804 0.000001 -0.000000 -0.000001 -11.037424 5.413719 -15.365376 29.539168 1.430481 1.837447 -19.250263 -0.564680 1.096905 0.127672 -0.001640 0.343152 -0.000000 -0.000001 0.000000 -21.195366 -5.025569 -19.230348 62.462865 -12.572343 -2.488484 30.868828 -1.410384 25.193006 -49.016238 -14.436949 16.554746 -0.000000 -0.000000 0.000000 
-7.756737 95.883064 473.406128 178.859350 17.538992 -173.785202 -6.823878 7.770094 -3.284588 2.893130 0.698839 -3.014760 0.000000 0.000000 0.000000 2.924214 0.744274 -2.974639 -2.071822 -0.141754 -2.407374 4.963951 14.191077 3.450175 -0.000000 0.000000 0.000000 2.756978 -11.327254 -8.553152 0.000000 0.000000 0.000000 7.462148 26.390229 -74.021724 0.000002 -30.901558 0.000003 18.404088 3.328750 -3.716060 -6.679929 7.905299 21.241960 12.115532 24.772317 -7.749832 4.807602 7.101542 -2.892889 -0.000002 -0.000001 0.000000 -0.715149 -1.681685 -15.537902 0.762924 3.155239 -27.179852 0.000000 -0.000001 -0.000001 -0.441820 -1.753596 -10.653331 0.508277 2.600906 -22.111583 0.000000 0.000001 0.000001 0.018859 0.833784 -12.381404 0.958588 3.509635 -30.544838 -0.000002 -0.000001 -0.000001 1.680023 9.950116 -9.693222 0.819463 -0.816292 -28.473201 -0.000000 0.000001 -0.000001 1.119225 7.836397 2.584076 0.000000 0.000000 0.000000 52.387346 28.918854 68.720664 -0.000054 65.210418 0.000072 49.212794 43.993457 -70.307508 1.612538 4.590515 9.914297 4.591461 -8.611593 -0.250448 -7.869696 19.058463 -1.515834 0.000002 -0.000000 -0.000001 8.043907 12.469092 -38.358076 0.271728 -1.928488 16.039232 -0.000002 0.000002 -0.000000 3.304409 7.786618 -28.584697 0.563704 -2.747178 23.187244 0.000002 0.000001 0.000000 1.306157 4.743802 -20.435253 0.142642 -1.403904 11.601419 -0.000003 0.000001 -0.000001 -3.408497 -9.802905 -18.290294 0.124124 -1.310600 10.820389 -0.000002 -0.000000 -0.000000 -11.457817 5.687137 -15.980865 31.238236 1.226797 1.760854 -20.209387 -0.592990 1.158178 0.162109 -0.002643 0.435146 0.000000 0.000001 0.000001 -26.216289 -2.093513 -19.776884 68.810618 -12.792654 -2.848956 34.021978 -0.161092 23.695984 -44.411205 -16.784439 21.477607 0.000001 0.000000 -0.000000 
-7.733768 95.186256 473.043060 179.200026 17.394103 -173.341158 -5.809038 7.158812 -3.547374 2.933194 0.624650 -2.987730 0.000000 0.000000 0.000000 2.961293 0.663009 -2.952149 -2.203036 0.161607 -2.473803 4.488082 15.734516 3.256485 0.000000 -0.000000 -0.000000 2.971082 -12.063190 -8.721499 0.000000 0.000000 0.000000 4.929907 24.735641 -72.465664 0.000003 -29.942781 0.000024 20.161714 3.356237 -5.337353 -6.637162 8.152889 21.761758 12.058651 24.653535 -7.712797 4.708169 6.866388 -2.837770 0.000001 -0.000001 -0.000000 -0.758321 -1.833527 -15.571388 0.762858 3.155088 -27.178489 0.000002 -0.000000 -0.000000 -0.396369 -1.641714 -10.164233 0.521154 2.632338 -22.393684 -0.000001 0.000001 0.000001 0.054882 0.986395 -12.067065 0.976212 3.539276 -30.831645 0.000001 -0.000001 -0.000000 1.545688 9.743654 -9.067361 0.867667 -0.728936 -29.299299 -0.000001 -0.000001 -0.000002 1.117980 7.796106 2.772339 0.000000 0.000000 0.000000 51.747197 27.364142 69.249253 0.000079 65.598066 -0.000074 48.522241 43.868703 -68.225503 1.697993 4.654637 9.734102 4.643974 -8.637847 -0.222396 -7.857491 19.054887 -1.516890 -0.000002 -0.000001 -0.000002 8.123811 12.566364 -38.364630 0.272646 -1.931717 16.066925 0.000001 0.000002 -0.000002 3.359322 7.885438 -28.584133 0.564550 -2.749145 23.205055 0.000001 0.000001 -0.000000 1.344044 4.841597 -20.454233 0.144796 -1.414412 11.689405 -0.000002 0.000000 -0.000000 -3.378544 -9.684374 -18.312502 0.125845 -1.319569 10.895640 0.000000 -0.000000 0.000000 -11.712874 5.988559 -16.593396 32.904327 1.193864 1.624835 -21.185982 -0.708000 1.585038 0.140025 -0.001976 0.376248 -0.000000 0.000000 0.000000 -31.434914 1.259055 -19.573393 75.246828 -13.014209 -3.149847 38.059235 1.215836 21.315011 -38.493696 -17.564062 27.247546 0.000001 -0.000000 0.000000 
-7.640148 94.400185 472.686646 179.692578 17.300241 -172.966973 -4.499230 6.410788 -3.930726 2.999072 0.539771 -2.909295 0.000000 0.000000 0.000000 3.023191 0.569708 -2.878692 -2.461547 0.458116 -2.518296 3.810299 17.269184 3.096438 0.000000 0.000000 0.000000 3.178510 -12.741125 -8.876166 0.000000 0.000000 0.000000 2.395076 22.712162 -70.729737 0.000002 -29.185231 -0.000000 21.983058 3.315593 -7.258222 -6.575002 8.465505 22.208749 12.030490 24.594555 -7.694441 4.623100 6.664037 -2.790550 -0.000000 0.000001 0.000001 -0.803896 -1.960305 -15.732939 0.762765 3.154931 -27.177043 0.000000 -0.000001 0.000000 -0.347459 -1.474773 -9.741972 0.537141 2.670788 -22.739375 -0.000001 0.000000 0.000001 0.097359 1.178722 -11.727802 0.993922 3.568723 -31.117280 0.000003 0.000000 0.000001 1.419974 9.556704 -8.449562 0.914164 -0.647390 -30.076622 -0.000001 -0.000000 -0.000001 1.121244 7.819849 2.977593 0.000000 0.000000 0.000000 51.020734 25.897801 69.585353 0.000090 65.873937 -0.000086 48.045774 43.652955 -66.495074 1.674122 4.625034 9.423037 4.792287 -8.719107 -0.141149 -7.824534 19.043817 -1.519230 -0.000000 -0.000001 -0.000000 8.110523 12.612031 -38.150985 0.274389 -1.937724 16.117928 -0.000003 0.000000 -0.000001 3.348808 7.905855 -28.371810 0.565564 -2.751526 23.226354 0.000001 0.000000 0.000000 1.342187 4.855348 -20.305983 0.150363 -1.441050 11.913049 -0.000001 -0.000000 -0.000000 -3.333348 -9.620606 -18.192499 0.131381 -1.348026 11.133414 -0.000003 -0.000000 -0.000001 -11.696290 6.339508 -17.148051 34.451276 1.265464 1.389130 -22.160086 -0.986201 2.563627 -0.122243 -0.000002 0.000003 -0.000000 0.000000 0.000000 -36.789281 4.804435 -18.564504 81.625610 -13.194140 -3.323530 42.862675 2.773946 18.206692 -31.881417 -14.698468 30.231462 0.000001 -0.000000 0.000000 
